<?xml version="1.0" encoding="utf-8"?>
<!-- Generator: Adobe Illustrator 23.0.1, SVG Export Plug-In . SVG Version: 6.00 Build 0)  -->
<svg version="1.1" id="Layer_1" xmlns="http://www.w3.org/2000/svg" xmlns:xlink="http://www.w3.org/1999/xlink" x="0px" y="0px"
	 viewBox="0 0 13.2 22.3" style="enable-background:new 0 0 13.2 22.3;" xml:space="preserve">
<style type="text/css">
	.st0{fill:#FF8505;}
</style>
<title>chevron_left</title>
<g>
	<g id="Layer_1-2">
		<path class="st0" d="M12.6,0.6L12.6,0.6c-0.8-0.8-2-0.8-2.8,0c0,0,0,0,0,0L0.6,9.8c-0.8,0.8-0.8,2,0,2.8c0,0,0,0,0,0l9.2,9.2
			c0.8,0.8,2,0.8,2.8,0c0,0,0,0,0,0l0,0c0.8-0.8,0.8-2,0-2.8c0,0,0,0,0,0l-7.8-7.8l7.8-7.8C13.4,2.6,13.4,1.4,12.6,0.6
			C12.6,0.6,12.6,0.6,12.6,0.6z"/>
	</g>
</g>
</svg>
