<svg xmlns="http://www.w3.org/2000/svg" viewBox="0 0 608.48 120.89"><defs><style>.cls-1{fill:#ff8505;}.cls-2{fill:#384c6d;}.cls-3{fill:none;stroke:#384c6d;stroke-miterlimit:10;stroke-width:4.05px;}</style></defs><title>logo_top</title><g id="Layer_2" data-name="Layer 2"><g id="Layer_1-2" data-name="Layer 1"><polygon class="cls-1" points="124.93 1.87 242.51 31.26 242.51 119.45 124.93 119.45 124.93 1.87"/><polygon class="cls-2" points="0 31.26 0 119.45 29.39 119.45 29.39 54.78 88.19 40.08 88.19 119.45 117.58 119.45 117.58 1.87 0 31.26"/><path class="cls-1" d="M295.57,48.42H273.63V43.88c0-.9,1-1.53,2.94-1.88s2.95-1,2.95-1.89l0-30.93c0-1.54-1-2.48-2.92-2.8s-2.92-.94-2.92-1.84l0-4.4h21.75Zm22.18-.09-14.6.09a1.71,1.71,0,0,1-1.42-.57,2.29,2.29,0,0,1-.46-1.49,4.2,4.2,0,0,1,.6-2.13c.4-.68.85-1,1.33-1a12.27,12.27,0,0,0,7.49-2.27,8.49,8.49,0,0,0,3.63-7.25q0-3.86-3.87-5.84a17.68,17.68,0,0,0-8.07-1.65,1.26,1.26,0,0,1-1.11-.77,3.49,3.49,0,0,1-.44-1.74,3.31,3.31,0,0,1,.41-1.67,1.29,1.29,0,0,1,1.14-.7A17.76,17.76,0,0,0,310,19a7.16,7.16,0,0,0,3.14-6.31,6.17,6.17,0,0,0-3.05-5.76q-2.7-1.61-7.92-1.6a1.32,1.32,0,0,1-1.28-.77,4,4,0,0,1-.46-2,3.6,3.6,0,0,1,.41-1.8A1.32,1.32,0,0,1,302,0h13.48a16.79,16.79,0,0,1,9.57,2.66A9.52,9.52,0,0,1,329.64,11a10.45,10.45,0,0,1-3,7.36,19.57,19.57,0,0,1-6.62,4.4,12.89,12.89,0,0,1,7.61,3.63,12,12,0,0,1,3.94,7.3,14.84,14.84,0,0,1-3.77,10.19A12.8,12.8,0,0,1,317.75,48.33Z"/><path class="cls-1" d="M359.4,0V40.26c0,1.16,1.36,1.91,4.06,2.27s4.06,1.27,4.06,2.75l0,3.14h-30a1.76,1.76,0,0,1-.34-.65,3.08,3.08,0,0,1-.09-.75,4.92,4.92,0,0,1,.34-1.74,3,3,0,0,1,.19-.44q0-1.55,2.46-2.13c1.65-.38,2.47-1,2.47-1.69l.09-33.62c0-.74-.85-1.31-2.56-1.69s-2.56-1.25-2.56-2.57l.1-3.14Zm37,41.56a1.38,1.38,0,0,1,.9.83,3.87,3.87,0,0,1,.31,1.62,4.27,4.27,0,0,1-.31,1.74,1.51,1.51,0,0,1-1,.91A19.75,19.75,0,0,1,392.15,48a26.27,26.27,0,0,1-4.91.41,16.2,16.2,0,0,1-5.51-.72A8,8,0,0,1,377.67,44a9.76,9.76,0,0,1-1.25-3.67,35.81,35.81,0,0,1-.25-4.63V34.45a13.68,13.68,0,0,0-.62-4.81,6.21,6.21,0,0,0-1.94-2.52,16.51,16.51,0,0,0-3.57-1l-3.63-.49a.91.91,0,0,1-.82-.5,2.61,2.61,0,0,1-.29-1.28,3.38,3.38,0,0,1,.46-1.79,1.46,1.46,0,0,1,1.33-.78,12.65,12.65,0,0,0,6.76-1.54q3.11-1.93,3.1-6.33c0-2.16-1.15-4-3.43-5.61a10.21,10.21,0,0,0-5.75-2,1.12,1.12,0,0,1-1-.72,4.16,4.16,0,0,1-.36-1.84A4.35,4.35,0,0,1,366.9,1a1.55,1.55,0,0,1,1.45-.9h1.06c2.7-.09,4.25-.14,4.64-.14a28.19,28.19,0,0,1,3.33.14q6.81,0,11,3.1a10.65,10.65,0,0,1,4.45,9.08,9.65,9.65,0,0,1-2.66,6.91A14.35,14.35,0,0,1,383.33,23,10,10,0,0,1,388,24.74a9.4,9.4,0,0,1,2.93,3.19A15.15,15.15,0,0,1,392.12,34a31.24,31.24,0,0,0,.63,5.82,2.14,2.14,0,0,0,1.31,1.45,4.05,4.05,0,0,0,1.69.34h.48Z"/><path class="cls-1" d="M424.94,44.46a1,1,0,0,1,.87.54,2.8,2.8,0,0,1,.29,1.3,3.34,3.34,0,0,1-.32,1.49,1,1,0,0,1-.84.63,22.2,22.2,0,0,1-16.34-6.73,23.4,23.4,0,0,1-6.91-17.24,24.58,24.58,0,0,1,6.52-17.14A20.41,20.41,0,0,1,423.82.14a1.6,1.6,0,0,1,1.33,1,4.55,4.55,0,0,1,.56,2.25,2.84,2.84,0,0,1-.48,1.69,1.66,1.66,0,0,1-1.45.68q-3.67,1-5,5.68a38.11,38.11,0,0,0-.87,9.43v7.23q0,9,1.84,12.44A7.46,7.46,0,0,0,424.94,44.46Zm29.72-20a23.29,23.29,0,0,1-6.79,17.11,22.33,22.33,0,0,1-16.41,6.81c-.81,0-1.21-.59-1.21-1.78a3.51,3.51,0,0,1,.32-1.5,1,1,0,0,1,.84-.68c3-.68,5-2.67,6-6q1-3.26,1-10.4V24.25c0-3.33-.07-5.76-.19-7.28a21.07,21.07,0,0,0-1.5-6.8,8.09,8.09,0,0,0-4.25-4.42c-.42,0-.77-.31-1-.92A5.15,5.15,0,0,1,431,2.66a4.12,4.12,0,0,1,.37-1.84,1.11,1.11,0,0,1,1.13-.68,20.38,20.38,0,0,1,15.61,7.19A24.65,24.65,0,0,1,454.66,24.5Z"/><path class="cls-1" d="M497.67,26.43l-8.12,22L479,48.33,466.06,9.13c-.19-.61-1.09-1.34-2.7-2.2S460.94,5,460.94,3.72V0L486,.14l.44,3.15c.09.8-.68,1.5-2.32,2.1s-2.47,1.43-2.47,2.49a4.47,4.47,0,0,0,.19,1.21l6.92,22.18,5.89-14Zm28.46,14.31-3,7.59-10.34.29-12-39.34a5,5,0,0,0-3.09-3.36,3.29,3.29,0,0,1-2.32-3.31L495.25.1l25.57,0v4c0,.71-.79,1.27-2.35,1.69s-2.24,1-2.05,1.64Zm18-37.07c0,1.23-.9,2-2.68,2.39s-2.85,1.08-3.17,2.11l-8.79,23L526,22.53l5.62-14.32a1,1,0,0,0,.12-.53c0-.49-.74-1.06-2.22-1.74s-2.23-1.45-2.23-2.32L527.15.05H544.3Z"/><path class="cls-1" d="M566.2,45.33v3.09H549.28V45.14c0-.78.93-1.44,2.8-2s2.81-1.39,2.81-2.52V13.05l5.51,9.81v17.4c0,1,1,1.85,2.9,2.56S566.2,44.36,566.2,45.33Zm32.52-12.86v16h-7.43L557.83,6a4.3,4.3,0,0,0-2.46-1.07c-1.29-.25-1.93-.83-1.93-1.74V.05h20.27Zm6.19-28.86c0,.94-1,1.67-3.1,2.19s-3.09,1.28-3.09,2.29V22.81l-6-7.72,0-7.11c0-.81-1.15-1.75-3.43-2.82-1.1-.52-1.65-1.22-1.65-2.09v-3h17.16Z"/><line class="cls-3" x1="270" y1="66.9" x2="608.48" y2="66.9"/><path class="cls-2" d="M274.7,113.34a11,11,0,0,0,2.83,2.57,7.3,7.3,0,0,0,3.89,1,9.57,9.57,0,0,0,2-.22,6,6,0,0,0,1.87-.73,4.3,4.3,0,0,0,1.35-1.26,3.24,3.24,0,0,0,.5-1.82,3,3,0,0,0-.47-1.73,4.24,4.24,0,0,0-1.26-1.15,7.26,7.26,0,0,0-1.79-.76c-.68-.18-1.37-.35-2.07-.5-1.24-.26-2.41-.56-3.53-.89a11.69,11.69,0,0,1-2.94-1.32,6.12,6.12,0,0,1-2-2.1,6.4,6.4,0,0,1-.76-3.3,6.6,6.6,0,0,1,.84-3.36,7.24,7.24,0,0,1,2.24-2.4,11,11,0,0,1,3.13-1.46,12.64,12.64,0,0,1,3.58-.5,12,12,0,0,1,5.18,1.12A8,8,0,0,1,291,98.11l-3.64,2.41a6.76,6.76,0,0,0-2.21-2.27,6.15,6.15,0,0,0-3.33-.86,7.59,7.59,0,0,0-1.81.22,5.72,5.72,0,0,0-1.66.67,4,4,0,0,0-1.2,1.15,2.75,2.75,0,0,0-.47,1.59,2,2,0,0,0,.53,1.43,4.75,4.75,0,0,0,1.45,1,12.52,12.52,0,0,0,2.13.78c.8.22,1.63.41,2.49.56a23.42,23.42,0,0,1,3.3.87,9.47,9.47,0,0,1,2.74,1.42,6.38,6.38,0,0,1,1.85,2.24,7.33,7.33,0,0,1,.67,3.3,7.18,7.18,0,0,1-3.27,6.36,10.32,10.32,0,0,1-3.36,1.42,16.37,16.37,0,0,1-3.83.45,14.81,14.81,0,0,1-5.8-1,10.54,10.54,0,0,1-4.39-3.84Z"/><path class="cls-2" d="M321.49,97.72h-7.73v13.1c0,.86,0,1.65.06,2.38a5,5,0,0,0,.45,1.9,3,3,0,0,0,1.17,1.29,4.42,4.42,0,0,0,2.24.47,8.92,8.92,0,0,0,2-.22,8.08,8.08,0,0,0,1.9-.67l.17,4a9.91,9.91,0,0,1-2.49.73,16,16,0,0,1-2.6.22,9.46,9.46,0,0,1-3.75-.61,5.07,5.07,0,0,1-2.18-1.74,6.41,6.41,0,0,1-1-2.77,24.15,24.15,0,0,1-.25-3.67V97.72h-5.71V94h5.71V86.58h4.36V94h7.73Z"/><path class="cls-2" d="M359.43,115.46a13.23,13.23,0,0,1-5.15,4.23,16.37,16.37,0,0,1-6.49,1.2,13.49,13.49,0,0,1-5.54-1.09,12.58,12.58,0,0,1-4.17-2.94,12.72,12.72,0,0,1-2.63-4.36,15.4,15.4,0,0,1-.93-5.38,15,15,0,0,1,1-5.56,12.91,12.91,0,0,1,2.8-4.37,12.71,12.71,0,0,1,4.25-2.83,14.11,14.11,0,0,1,5.38-1,13.48,13.48,0,0,1,5,.92A10.93,10.93,0,0,1,356.94,97a11.9,11.9,0,0,1,2.54,4.31,17.25,17.25,0,0,1,.9,5.79v1.4H339.23a8.94,8.94,0,0,0,.81,3.21,9.05,9.05,0,0,0,1.82,2.69,8.26,8.26,0,0,0,2.63,1.82,8,8,0,0,0,3.3.67,10.34,10.34,0,0,0,4.81-1,11,11,0,0,0,3.53-3Zm-3.75-10.69a7.55,7.55,0,0,0-2.18-5.37,7.86,7.86,0,0,0-5.71-2,8,8,0,0,0-8.56,7.38Z"/><path class="cls-2" d="M399.72,115.46a13.23,13.23,0,0,1-5.15,4.23,16.34,16.34,0,0,1-6.49,1.2,13.49,13.49,0,0,1-5.54-1.09,12.58,12.58,0,0,1-4.17-2.94,12.88,12.88,0,0,1-2.63-4.36,15.63,15.63,0,0,1-.92-5.38,14.78,14.78,0,0,1,1-5.56,12.89,12.89,0,0,1,2.79-4.37,12.76,12.76,0,0,1,4.26-2.83,14.06,14.06,0,0,1,5.37-1,13.49,13.49,0,0,1,5,.92A10.89,10.89,0,0,1,397.23,97a12.06,12.06,0,0,1,2.55,4.31,17.52,17.52,0,0,1,.89,5.79v1.4H379.52a8.94,8.94,0,0,0,.81,3.21,9.25,9.25,0,0,0,1.82,2.69,8.37,8.37,0,0,0,2.63,1.82,8,8,0,0,0,3.3.67,10.38,10.38,0,0,0,4.82-1,11,11,0,0,0,3.52-3ZM396,104.77a7.51,7.51,0,0,0-2.18-5.37,7.84,7.84,0,0,0-5.71-2,8.06,8.06,0,0,0-8.56,7.38Z"/><path class="cls-2" d="M417,77.91h4.36v42.31H417Z"/><path class="cls-2" d="M462.9,114.51a20,20,0,0,1-5.14,4.7,12.64,12.64,0,0,1-6.72,1.68,15.37,15.37,0,0,1-4.81-.75,11.64,11.64,0,0,1-4-2.22,10.87,10.87,0,0,1-2.75-3.55,10.66,10.66,0,0,1-1-4.78,10.28,10.28,0,0,1,.7-3.84,11.43,11.43,0,0,1,1.9-3.19,14.08,14.08,0,0,1,2.8-2.52,24.39,24.39,0,0,1,3.39-1.93A24,24,0,0,1,443.88,94a9,9,0,0,1-1.4-5,8.66,8.66,0,0,1,.84-3.89,8.44,8.44,0,0,1,2.24-2.86,9.7,9.7,0,0,1,3.24-1.73,13.28,13.28,0,0,1,7.73,0,9.62,9.62,0,0,1,3.16,1.65,7.65,7.65,0,0,1,2.15,2.74,8.89,8.89,0,0,1,.79,3.84,7.59,7.59,0,0,1-.76,3.38,10.08,10.08,0,0,1-2,2.74A17.4,17.4,0,0,1,457.23,97a33,33,0,0,1-3,1.76l8.4,8.9,5.31-8.9h5.32l-7.61,12.2,9.06,9.29h-6.43ZM450.15,101a29.11,29.11,0,0,0-2.52,1.48,14.24,14.24,0,0,0-2.24,1.82,8.35,8.35,0,0,0-1.62,2.29,6.55,6.55,0,0,0-.62,2.86,7,7,0,0,0,.62,3,7.73,7.73,0,0,0,1.67,2.36,7.63,7.63,0,0,0,2.47,1.56,7.75,7.75,0,0,0,3,.56,8.43,8.43,0,0,0,2.8-.45,9.67,9.67,0,0,0,2.38-1.2,14.61,14.61,0,0,0,2.07-1.73c.65-.66,1.3-1.36,1.93-2.1Zm1.17-5.09,2.3-1.29a12.82,12.82,0,0,0,2.12-1.51,7.1,7.1,0,0,0,1.57-2,5.29,5.29,0,0,0,.61-2.58,4.19,4.19,0,0,0-1.48-3.41,5.38,5.38,0,0,0-3.55-1.23,6,6,0,0,0-4,1.43,4.82,4.82,0,0,0-1.68,3.89,5,5,0,0,0,.87,2.88,18.59,18.59,0,0,0,1.87,2.32Z"/><path class="cls-2" d="M488.82,77.91h4.36V97.67h.11a6.82,6.82,0,0,1,1.23-1.54,9.11,9.11,0,0,1,1.88-1.37,11.58,11.58,0,0,1,2.43-1,10.24,10.24,0,0,1,2.86-.39,11.57,11.57,0,0,1,4.45.78,8.32,8.32,0,0,1,3.1,2.18,8.86,8.86,0,0,1,1.82,3.39,15.28,15.28,0,0,1,.59,4.34v16.17h-4.37V104.49a8.36,8.36,0,0,0-1.45-5.2,5.33,5.33,0,0,0-4.53-1.9,8.61,8.61,0,0,0-3.67.72,6.54,6.54,0,0,0-2.52,2.07,9.25,9.25,0,0,0-1.45,3.19,16.33,16.33,0,0,0-.48,4.09v12.76h-4.36Z"/><path class="cls-2" d="M528.77,97.39a12.32,12.32,0,0,1,4.79-3,16.55,16.55,0,0,1,5.62-1q5.82,0,8.4,2.74t2.57,8.34v11.25c0,.74,0,1.52.11,2.32s.17,1.54.28,2.21h-4.19a9.22,9.22,0,0,1-.26-2c0-.73,0-1.37,0-1.93H546a10,10,0,0,1-3.44,3.3,9.87,9.87,0,0,1-5.17,1.29,13.87,13.87,0,0,1-3.78-.5,9.39,9.39,0,0,1-3.08-1.49,7.23,7.23,0,0,1-2.1-2.43,7,7,0,0,1-.78-3.36,7.29,7.29,0,0,1,1.68-5.09,10.14,10.14,0,0,1,4.17-2.74,20.4,20.4,0,0,1,5.37-1.12c1.92-.15,3.68-.23,5.29-.23h1.68v-.78a5.35,5.35,0,0,0-1.71-4.31,7.16,7.16,0,0,0-4.79-1.45,12.76,12.76,0,0,0-4.17.7,9.85,9.85,0,0,0-3.6,2.15Zm12.65,10.24a15.72,15.72,0,0,0-6.66,1.17,4,4,0,0,0-2.46,3.86,3.8,3.8,0,0,0,1.65,3.5,7.6,7.6,0,0,0,4.11,1,8,8,0,0,0,3.33-.65,7,7,0,0,0,2.38-1.7,7.54,7.54,0,0,0,1.46-2.49,10.44,10.44,0,0,0,.56-3v-1.68Z"/><path class="cls-2" d="M567.72,77.91h4.37v42.31h-4.37Z"/><path class="cls-2" d="M590.39,77.91h4.36v42.31h-4.36Z"/></g></g></svg>