<svg xmlns="http://www.w3.org/2000/svg" viewBox="0 0 244.72 182.75"><defs><style>.cls-1{fill:#fff;}.cls-2{fill:none;stroke:#fff;stroke-miterlimit:10;stroke-width:2.93px;}</style></defs><title>logo_footer</title><g id="Layer_2" data-name="Layer 2"><g id="Layer_1-2" data-name="Layer 1"><polygon class="cls-1" points="125 0 209.61 21.15 209.61 84.61 125 84.61 125 0"/><polygon class="cls-1" points="35.11 21.15 35.11 84.61 56.26 84.61 56.26 38.07 98.56 27.5 98.56 84.61 119.71 84.61 119.71 0 35.11 21.15"/><path class="cls-1" d="M18.48,130.36H2.62v-3.29c0-.65.71-1.1,2.13-1.36s2.13-.71,2.13-1.36l0-22.36c0-1.12-.71-1.8-2.12-2s-2.11-.67-2.11-1.33l0-3.18H18.38Zm16-.07L24,130.36a1.22,1.22,0,0,1-1-.42,1.65,1.65,0,0,1-.33-1.07,3,3,0,0,1,.43-1.54q.43-.75,1-.75a8.87,8.87,0,0,0,5.42-1.64A6.15,6.15,0,0,0,32,119.7a4.55,4.55,0,0,0-2.8-4.23,12.83,12.83,0,0,0-5.83-1.18.92.92,0,0,1-.8-.56,2.54,2.54,0,0,1-.32-1.26,2.34,2.34,0,0,1,.3-1.21.92.92,0,0,1,.82-.5,12.94,12.94,0,0,0,5.48-1.68,5.15,5.15,0,0,0,2.28-4.56A4.47,4.47,0,0,0,29,100.35a11.42,11.42,0,0,0-5.73-1.16.94.94,0,0,1-.92-.55A3,3,0,0,1,22,97.18a2.7,2.7,0,0,1,.29-1.29,1,1,0,0,1,.89-.54h9.75a12.13,12.13,0,0,1,6.92,1.92,6.88,6.88,0,0,1,3.29,6A7.57,7.57,0,0,1,41,108.58a14,14,0,0,1-4.79,3.19,9.34,9.34,0,0,1,5.51,2.62,8.62,8.62,0,0,1,2.84,5.28A10.77,10.77,0,0,1,41.79,127,9.25,9.25,0,0,1,34.52,130.29Z"/><path class="cls-1" d="M64.64,95.35v29.1c0,.84,1,1.39,2.93,1.65s2.94.92,2.94,2l0,2.27H48.81a1.11,1.11,0,0,1-.24-.47,2,2,0,0,1-.07-.55,3.68,3.68,0,0,1,.24-1.25,2.22,2.22,0,0,1,.14-.32c0-.75.59-1.26,1.78-1.54s1.78-.69,1.78-1.22l.07-24.31c0-.54-.61-1-1.85-1.23s-1.85-.89-1.85-1.85l.07-2.27ZM91.4,125.4a1,1,0,0,1,.65.6,2.81,2.81,0,0,1,.22,1.17,3.16,3.16,0,0,1-.22,1.26,1.08,1.08,0,0,1-.72.65,14,14,0,0,1-3,1,18.52,18.52,0,0,1-3.55.3,11.61,11.61,0,0,1-4-.53,5.79,5.79,0,0,1-2.94-2.66,7.07,7.07,0,0,1-.9-2.65,26.6,26.6,0,0,1-.18-3.35v-.92a9.74,9.74,0,0,0-.45-3.47,4.57,4.57,0,0,0-1.4-1.83,11.74,11.74,0,0,0-2.59-.73l-2.62-.35a.67.67,0,0,1-.59-.37,1.83,1.83,0,0,1-.21-.93,2.5,2.5,0,0,1,.33-1.29,1.06,1.06,0,0,1,1-.56,9.08,9.08,0,0,0,4.89-1.12,5.12,5.12,0,0,0-.24-8.63,7.4,7.4,0,0,0-4.16-1.46A.79.79,0,0,1,70,99a2.89,2.89,0,0,1-.27-1.33,3.25,3.25,0,0,1,.35-1.55,1.15,1.15,0,0,1,1-.65h.77c2-.07,3.07-.1,3.35-.1a19.63,19.63,0,0,1,2.42.1,13,13,0,0,1,7.93,2.24,7.71,7.71,0,0,1,3.21,6.57,7,7,0,0,1-1.92,5,10.25,10.25,0,0,1-4.93,2.69,7.31,7.31,0,0,1,3.39,1.3,6.78,6.78,0,0,1,2.12,2.3,11,11,0,0,1,.85,4.39,22.16,22.16,0,0,0,.46,4.21,1.57,1.57,0,0,0,.94,1,3.05,3.05,0,0,0,1.22.24h.35Z"/><path class="cls-1" d="M112,127.49a.67.67,0,0,1,.62.4,1.94,1.94,0,0,1,.21.93,2.45,2.45,0,0,1-.22,1.08.71.71,0,0,1-.61.46,16,16,0,0,1-11.81-4.87,16.9,16.9,0,0,1-5-12.46,17.74,17.74,0,0,1,4.72-12.39,14.72,14.72,0,0,1,11.28-5.19,1.15,1.15,0,0,1,1,.72,3.24,3.24,0,0,1,.4,1.62,2,2,0,0,1-.35,1.23,1.21,1.21,0,0,1-1,.49c-1.77.47-3,1.83-3.6,4.11a27.42,27.42,0,0,0-.63,6.81v5.23q0,6.5,1.33,9A5.37,5.37,0,0,0,112,127.49Zm21.48-14.43a16.79,16.79,0,0,1-4.91,12.37,16.1,16.1,0,0,1-11.86,4.93q-.87,0-.87-1.29a2.45,2.45,0,0,1,.23-1.09c.15-.32.35-.49.61-.49a5.79,5.79,0,0,0,4.33-4.32,27.54,27.54,0,0,0,.73-7.51v-2.77c0-2.42,0-4.17-.14-5.27a15,15,0,0,0-1.08-4.92,5.8,5.8,0,0,0-3.07-3.19c-.31,0-.56-.22-.76-.67a3.93,3.93,0,0,1-.29-1.57,3,3,0,0,1,.26-1.33.8.8,0,0,1,.82-.49,14.75,14.75,0,0,1,11.29,5.19A17.88,17.88,0,0,1,133.5,113.06Z"/><path class="cls-1" d="M164.6,114.46l-5.87,15.93-7.62-.1L141.75,102c-.14-.44-.79-1-2-1.59A2.69,2.69,0,0,1,138.05,98V95.35l18.13.1.31,2.28c.07.58-.49,1.08-1.67,1.52s-1.79,1-1.79,1.8a3.09,3.09,0,0,0,.14.87l5,16,4.26-10.14Zm20.58,10.34-2.2,5.49-7.48.21-8.66-28.44a3.64,3.64,0,0,0-2.24-2.43,2.38,2.38,0,0,1-1.68-2.39l-.07-1.82,18.49,0v2.9c0,.52-.57.92-1.7,1.23s-1.62.69-1.48,1.18Zm13-26.8c0,.89-.65,1.47-1.94,1.73s-2.05.78-2.29,1.52l-6.36,16.67-2.53-6.28,4.06-10.36a.8.8,0,0,0,.08-.38c0-.35-.53-.77-1.61-1.26S186,98.6,186,98l-.11-2.59h12.41Z"/><path class="cls-1" d="M214.14,128.12v2.24H201.91V128c0-.56.68-1,2-1.43s2-1,2-1.82v-20l4,7.1v12.57c0,.73.7,1.34,2.1,1.86S214.14,127.42,214.14,128.12Zm23.52-9.29v11.53h-5.38L208.1,99.69a3,3,0,0,0-1.78-.77c-.94-.19-1.4-.61-1.4-1.26V95.38h14.66ZM242.13,98c0,.68-.75,1.21-2.24,1.58s-2.23.93-2.23,1.66v10.64l-4.35-5.58,0-5.14c0-.58-.83-1.27-2.49-2-.79-.38-1.18-.88-1.18-1.51V95.38h12.4Z"/><line class="cls-2" y1="143.72" x2="244.72" y2="143.72"/><path class="cls-1" d="M3.4,177.29a8.06,8.06,0,0,0,2,1.86,5.25,5.25,0,0,0,2.81.69,7.53,7.53,0,0,0,1.48-.16,4.64,4.64,0,0,0,1.36-.53,3.14,3.14,0,0,0,1-.91,2.35,2.35,0,0,0,.36-1.32,2.1,2.1,0,0,0-.34-1.25,3.17,3.17,0,0,0-.91-.83,5.3,5.3,0,0,0-1.3-.55c-.48-.13-1-.25-1.49-.36-.89-.19-1.74-.4-2.55-.65a8.33,8.33,0,0,1-2.13-.95,4.4,4.4,0,0,1-1.45-1.52,4.58,4.58,0,0,1-.55-2.38A4.72,4.72,0,0,1,2.31,166a5.25,5.25,0,0,1,1.61-1.74,7.86,7.86,0,0,1,2.27-1,9.37,9.37,0,0,1,2.59-.37,8.64,8.64,0,0,1,3.74.81,5.8,5.8,0,0,1,2.69,2.63L12.58,168a4.83,4.83,0,0,0-1.6-1.64,4.46,4.46,0,0,0-2.4-.62,5.54,5.54,0,0,0-1.32.16,4.36,4.36,0,0,0-1.19.48,3,3,0,0,0-.87.83,2,2,0,0,0-.34,1.16,1.46,1.46,0,0,0,.38,1,3.63,3.63,0,0,0,1,.75,9.79,9.79,0,0,0,1.54.56c.58.16,1.18.3,1.8.41a17.41,17.41,0,0,1,2.39.63,6.88,6.88,0,0,1,2,1,4.46,4.46,0,0,1,1.33,1.62,5.18,5.18,0,0,1,.49,2.38,5.46,5.46,0,0,1-.65,2.75,5.24,5.24,0,0,1-1.72,1.84,7.42,7.42,0,0,1-2.42,1,12.28,12.28,0,0,1-2.78.32A10.62,10.62,0,0,1,4.07,182a7.54,7.54,0,0,1-3.18-2.77Z"/><path class="cls-1" d="M37.22,166H31.64v9.47c0,.62,0,1.19,0,1.72a3.59,3.59,0,0,0,.32,1.37,2.24,2.24,0,0,0,.85.93,3.14,3.14,0,0,0,1.62.35,7.1,7.1,0,0,0,1.42-.16,5.88,5.88,0,0,0,1.37-.49l.13,2.87a7,7,0,0,1-1.81.53,11.37,11.37,0,0,1-1.88.16,7,7,0,0,1-2.71-.44,3.76,3.76,0,0,1-1.58-1.26,4.77,4.77,0,0,1-.74-2,16.58,16.58,0,0,1-.19-2.65V166H24.36v-2.67h4.12V158h3.16v5.38h5.58Z"/><path class="cls-1" d="M64.66,178.83a9.71,9.71,0,0,1-3.73,3,11.78,11.78,0,0,1-4.69.87,9.76,9.76,0,0,1-4-.79,9,9,0,0,1-3-2.12,9.33,9.33,0,0,1-1.9-3.16,11.07,11.07,0,0,1-.67-3.88,10.78,10.78,0,0,1,.73-4,9.07,9.07,0,0,1,5.1-5.2,10.23,10.23,0,0,1,3.88-.73,9.74,9.74,0,0,1,3.64.67,7.85,7.85,0,0,1,2.85,1.94,8.8,8.8,0,0,1,1.85,3.12,12.63,12.63,0,0,1,.64,4.19v1H50.05a6.46,6.46,0,0,0,.59,2.32A6.61,6.61,0,0,0,52,178a6,6,0,0,0,1.9,1.31,5.74,5.74,0,0,0,2.39.49,7.62,7.62,0,0,0,3.48-.73A8,8,0,0,0,62.27,177Zm-2.72-7.73a5.48,5.48,0,0,0-1.57-3.89,5.68,5.68,0,0,0-4.13-1.45,5.82,5.82,0,0,0-6.19,5.34Z"/><path class="cls-1" d="M93.79,178.83a9.71,9.71,0,0,1-3.73,3,11.75,11.75,0,0,1-4.69.87,9.68,9.68,0,0,1-4-.79,8.9,8.9,0,0,1-3-2.12,9.33,9.33,0,0,1-1.9-3.16,11.07,11.07,0,0,1-.67-3.88,10.78,10.78,0,0,1,.73-4,9.32,9.32,0,0,1,2-3.15,9.18,9.18,0,0,1,3.08-2.05,10.23,10.23,0,0,1,3.88-.73,9.74,9.74,0,0,1,3.64.67A8,8,0,0,1,92,165.45a8.78,8.78,0,0,1,1.84,3.12,12.63,12.63,0,0,1,.64,4.19v1H79.18a6.46,6.46,0,0,0,.59,2.32A6.61,6.61,0,0,0,81.08,178a6.14,6.14,0,0,0,1.9,1.31,5.74,5.74,0,0,0,2.39.49,7.59,7.59,0,0,0,3.48-.73A8,8,0,0,0,91.4,177Zm-2.71-7.73a5.49,5.49,0,0,0-1.58-3.89,5.68,5.68,0,0,0-4.13-1.45,5.82,5.82,0,0,0-6.19,5.34Z"/><path class="cls-1" d="M106.29,151.68h3.16v30.59h-3.16Z"/><path class="cls-1" d="M139.47,178.14a14.53,14.53,0,0,1-3.73,3.4,9.11,9.11,0,0,1-4.85,1.21,10.88,10.88,0,0,1-3.48-.55,8.36,8.36,0,0,1-2.89-1.59,8,8,0,0,1-2-2.57,7.74,7.74,0,0,1-.74-3.46,7.37,7.37,0,0,1,.5-2.77,8.43,8.43,0,0,1,1.38-2.31,9.77,9.77,0,0,1,2-1.82,17.28,17.28,0,0,1,2.45-1.4,17.31,17.31,0,0,1-2.43-3,6.64,6.64,0,0,1-1-3.64,6.21,6.21,0,0,1,.61-2.81,6,6,0,0,1,1.61-2.07,7.07,7.07,0,0,1,2.35-1.25,9.48,9.48,0,0,1,5.58,0,6.84,6.84,0,0,1,2.29,1.19,5.63,5.63,0,0,1,1.56,2,6.38,6.38,0,0,1,.56,2.77,5.5,5.5,0,0,1-.54,2.45,7.44,7.44,0,0,1-1.42,2,12.44,12.44,0,0,1-1.94,1.57,24.44,24.44,0,0,1-2.16,1.28l6.06,6.43,3.85-6.43H147l-5.5,8.82,6.55,6.72h-4.65Zm-9.23-9.79a19.68,19.68,0,0,0-1.82,1.07,10.91,10.91,0,0,0-1.62,1.31,6.23,6.23,0,0,0-1.17,1.66,4.69,4.69,0,0,0-.45,2.07,5,5,0,0,0,.45,2.14,5.46,5.46,0,0,0,3,2.83,5.75,5.75,0,0,0,2.15.41,6,6,0,0,0,2-.33,6.79,6.79,0,0,0,1.72-.87,10.93,10.93,0,0,0,1.5-1.25c.47-.47.93-1,1.39-1.52Zm.85-3.69c.54-.29,1.09-.6,1.66-.93a8.68,8.68,0,0,0,1.54-1.09,5.16,5.16,0,0,0,1.13-1.41,3.78,3.78,0,0,0,.45-1.87,3,3,0,0,0-1.08-2.46,3.85,3.85,0,0,0-2.57-.89,4.34,4.34,0,0,0-2.91,1,3.49,3.49,0,0,0-1.21,2.81,3.62,3.62,0,0,0,.62,2.08,13.29,13.29,0,0,0,1.36,1.68Z"/><path class="cls-1" d="M158.2,151.68h3.15V166h.09a4.67,4.67,0,0,1,.89-1.11,6.48,6.48,0,0,1,1.35-1,8.75,8.75,0,0,1,1.76-.72,7.32,7.32,0,0,1,2.06-.29,8.24,8.24,0,0,1,3.22.57A6.11,6.11,0,0,1,173,165a6.35,6.35,0,0,1,1.31,2.45,10.72,10.72,0,0,1,.43,3.13v11.7h-3.16V170.89a6.06,6.06,0,0,0-1.05-3.76,3.89,3.89,0,0,0-3.28-1.37,6.17,6.17,0,0,0-2.65.52,4.67,4.67,0,0,0-1.82,1.5,6.8,6.8,0,0,0-1.05,2.31,11.76,11.76,0,0,0-.35,2.95v9.23H158.2Z"/><path class="cls-1" d="M187.09,165.76a8.82,8.82,0,0,1,3.46-2.21,12.14,12.14,0,0,1,4.06-.71c2.81,0,4.83.67,6.07,2s1.86,3.33,1.86,6V179c0,.54,0,1.1.08,1.68s.13,1.11.21,1.6h-3a6.44,6.44,0,0,1-.18-1.44c0-.53,0-1,0-1.4h-.08a7.41,7.41,0,0,1-2.49,2.39,7.16,7.16,0,0,1-3.74.93,10,10,0,0,1-2.73-.36,6.91,6.91,0,0,1-2.23-1.08,5.27,5.27,0,0,1-1.52-1.76,5.11,5.11,0,0,1-.56-2.42,5.28,5.28,0,0,1,1.21-3.69,7.37,7.37,0,0,1,3-2,14.93,14.93,0,0,1,3.88-.81c1.39-.1,2.66-.16,3.82-.16h1.22v-.57a3.84,3.84,0,0,0-1.24-3.11,5.16,5.16,0,0,0-3.46-1.05,9.41,9.41,0,0,0-3,.5,7.38,7.38,0,0,0-2.61,1.56Zm9.14,7.4a11.24,11.24,0,0,0-4.81.85,2.89,2.89,0,0,0-1.78,2.79,2.74,2.74,0,0,0,1.19,2.53,5.5,5.5,0,0,0,3,.75,5.67,5.67,0,0,0,2.41-.47,5,5,0,0,0,1.72-1.23,5.21,5.21,0,0,0,1-1.8,7.21,7.21,0,0,0,.41-2.2v-1.22Z"/><path class="cls-1" d="M215.25,151.68h3.15v30.59h-3.15Z"/><path class="cls-1" d="M231.63,151.68h3.16v30.59h-3.16Z"/></g></g></svg>